<svg width="119" height="32" viewBox="0 0 119 32" fill="none" xmlns="http://www.w3.org/2000/svg">
<mask id="mask0_4751_11551" style="mask-type:luminance" maskUnits="userSpaceOnUse" x="0" y="0" width="33" height="32">
<path d="M32.1098 0H0.00390625V32H32.1098V0Z" fill="white"/>
</mask>
<g mask="url(#mask0_4751_11551)">
<mask id="mask1_4751_11551" style="mask-type:luminance" maskUnits="userSpaceOnUse" x="0" y="0" width="33" height="32">
<path d="M32.1118 0H0.00585938V32H32.1118V0Z" fill="white"/>
</mask>
<g mask="url(#mask1_4751_11551)">
<path d="M32.1118 10.1696V26.0885C32.1118 26.825 31.2214 27.1957 30.6985 26.6744L28.3667 24.3442C28.2111 24.1887 28.125 23.9785 28.125 23.7584V10.5619C28.125 6.93422 25.1743 3.98345 21.5466 3.98345H8.35176C8.13165 3.98345 7.92147 3.89574 7.76591 3.74183L5.4374 1.41332C4.9161 0.892015 5.28515 0 6.02325 0H21.9405C27.5491 0 32.1118 4.56268 32.1118 10.1696Z" fill="#0088FF"/>
<path d="M26.6769 30.5866C27.1982 31.1079 26.8292 31.9999 26.0911 31.9999H10.1755C4.56689 31.9999 0.00585938 27.4372 0.00585938 21.8302V5.913C0.00585938 5.17489 0.897874 4.80584 1.41918 5.3288L3.74769 7.65897C3.90325 7.81453 3.98931 8.02471 3.98931 8.24316V21.4347C3.98931 25.064 6.94008 28.0148 10.5677 28.0148H23.7626C23.9827 28.0148 24.1929 28.1025 24.3484 28.2564L26.6786 30.5866H26.6769Z" fill="#0088FF"/>
</g>
</g>
<path d="M11.787 22.2231C11.8961 22.1616 12.0344 22.1616 12.1466 22.2339C12.3064 22.3384 12.3525 22.552 12.2496 22.7133C12.1451 22.8732 11.9314 22.9193 11.7701 22.8163C11.6533 22.741 11.598 22.6073 11.6149 22.4797C10.8495 21.9403 10.1795 21.2626 9.6447 20.4742C9.14985 19.7443 8.77334 18.9205 8.54282 18.0246C8.4168 17.9954 8.3123 17.8955 8.2831 17.7603C8.24315 17.5728 8.36302 17.3899 8.54897 17.3499C8.73646 17.31 8.91933 17.4283 8.95929 17.6158C8.98695 17.7464 8.93778 17.8755 8.84096 17.9554C9.06072 18.816 9.4234 19.6044 9.89673 20.3036C10.4085 21.0582 11.0509 21.7083 11.7839 22.2262M18.6718 23.1621C18.6841 23.0376 18.7625 22.9239 18.8869 22.8747C19.0637 22.8025 19.2665 22.8885 19.3372 23.0653C19.4095 23.242 19.3234 23.4448 19.1467 23.5155C19.0191 23.5678 18.8777 23.537 18.7824 23.4494C17.9111 23.763 16.9813 23.9228 16.0377 23.912C15.1479 23.9013 14.2458 23.7384 13.3699 23.408C13.2731 23.494 13.1317 23.5232 13.0041 23.4694C12.8274 23.3957 12.7459 23.1913 12.8197 23.0161C12.8935 22.8393 13.0979 22.7579 13.2731 22.8317C13.396 22.8839 13.4728 22.9992 13.4836 23.1236C14.3242 23.4402 15.1879 23.597 16.0408 23.6062C16.9429 23.617 17.8342 23.4633 18.6718 23.1636V23.1621ZM23.1684 18.7484C23.0808 18.6593 23.047 18.524 23.0885 18.398C23.1485 18.2167 23.3452 18.1183 23.5265 18.1798C23.7078 18.2397 23.8062 18.4364 23.7447 18.6178C23.7017 18.7484 23.5864 18.836 23.4574 18.8514C23.1884 19.5629 22.8165 20.2376 22.3463 20.8492C21.9052 21.424 21.3796 21.9434 20.7741 22.3875C20.7941 22.5151 20.7403 22.6503 20.6251 22.7272C20.4668 22.8347 20.2516 22.7932 20.144 22.6334C20.0365 22.4751 20.078 22.26 20.2362 22.1524C20.3469 22.0771 20.4852 22.0756 20.5959 22.1355C21.1752 21.7098 21.6778 21.2119 22.1004 20.6617C22.5506 20.0747 22.9072 19.4292 23.1654 18.7484H23.1684ZM17.8619 8.75468C17.7835 8.8515 17.656 8.90375 17.5253 8.87916C17.3379 8.84228 17.2149 8.66094 17.2518 8.47345C17.2887 8.28596 17.47 8.16302 17.6575 8.1999C17.7928 8.22603 17.8957 8.32899 17.928 8.45501C19.9335 8.92526 21.5871 10.1363 22.6536 11.7376C23.7017 13.3113 24.1843 15.263 23.8784 17.2593C23.9829 17.3361 24.0398 17.4683 24.0137 17.605C23.9768 17.7925 23.7954 17.9155 23.608 17.8786C23.4205 17.8417 23.2975 17.6604 23.3344 17.4729C23.359 17.3423 23.4558 17.2424 23.5757 17.207C23.8677 15.2906 23.4036 13.4188 22.397 11.9082C21.3735 10.3714 19.7875 9.20957 17.8634 8.75775L17.8619 8.75468ZM10.1718 18.8037C10.2794 18.8037 10.3839 18.8637 10.4361 18.9666C10.5114 19.1142 10.453 19.294 10.3055 19.3693C10.158 19.4446 9.97818 19.3862 9.90288 19.2386C9.84909 19.1326 9.86446 19.0081 9.93208 18.919C9.59245 18.1844 9.38498 17.3884 9.32505 16.5692C9.26972 15.8101 9.34349 15.0309 9.56018 14.261C9.47873 14.1842 9.44338 14.0643 9.48026 13.9506C9.53098 13.7938 9.70002 13.7077 9.85678 13.7585C10.0135 13.8092 10.0996 13.9782 10.0489 14.135C10.0135 14.2441 9.91978 14.3194 9.81375 14.3378C9.60782 15.077 9.53712 15.8224 9.58937 16.5493C9.64624 17.3346 9.84602 18.0984 10.1703 18.8022L10.1718 18.8037ZM14.9143 22.4782C14.9774 22.3906 15.0849 22.3399 15.1987 22.3553C15.3616 22.3783 15.4768 22.5289 15.4538 22.6933C15.4307 22.8562 15.2801 22.9715 15.1157 22.9485C14.9973 22.9316 14.9051 22.8486 14.8713 22.741C14.0845 22.5996 13.3192 22.3168 12.6199 21.9019C11.9591 21.51 11.3551 20.9983 10.8434 20.3728C10.7343 20.3959 10.6159 20.3559 10.5437 20.2606C10.4438 20.1285 10.47 19.941 10.6021 19.8426C10.7343 19.7427 10.9218 19.7688 11.0217 19.901C11.0908 19.9932 11.0985 20.1131 11.0524 20.2099C11.5442 20.8092 12.122 21.2995 12.7567 21.6745C13.4267 22.0725 14.1598 22.3414 14.9159 22.4782H14.9143ZM20.184 21.1197C20.1579 21.0152 20.1886 20.8999 20.2762 20.8231C20.3991 20.714 20.5882 20.7247 20.6988 20.8492C20.8079 20.9721 20.7972 21.1612 20.6742 21.2718C20.5851 21.3517 20.4606 21.3671 20.3577 21.3225C19.849 21.739 19.2804 22.0817 18.6641 22.3368C18.0863 22.5766 17.4685 22.7379 16.823 22.8086C16.7831 22.9131 16.6847 22.99 16.5649 22.9992C16.4004 23.0115 16.2575 22.887 16.2452 22.7225C16.2329 22.5581 16.3574 22.4152 16.5218 22.4029C16.6371 22.3952 16.7416 22.4536 16.7984 22.5458C17.4162 22.4767 18.0064 22.323 18.5596 22.0925C19.1497 21.8481 19.6953 21.5192 20.1825 21.1212L20.184 21.1197ZM20.5298 11.3534C20.4299 11.3933 20.3115 11.3764 20.224 11.3011C20.0995 11.1936 20.0856 11.0045 20.1948 10.8801C20.3023 10.7556 20.4914 10.7417 20.6158 10.8509C20.7065 10.9292 20.7388 11.0491 20.708 11.1582C22.0051 12.3754 22.7182 13.9951 22.8242 15.6533C22.9287 17.2823 22.4477 18.9497 21.3566 20.3113C21.4011 20.4143 21.3873 20.5372 21.3089 20.6279C21.2013 20.7524 21.0123 20.7662 20.8878 20.6571C20.7634 20.5495 20.7495 20.3605 20.8586 20.236C20.9339 20.1484 21.0492 20.1162 21.1537 20.1407C22.1987 18.8329 22.6613 17.2331 22.5599 15.6687C22.4584 14.0781 21.773 12.5244 20.5298 11.3549V11.3534ZM10.3562 12.4706C11.2967 10.9799 12.7321 9.97643 14.3242 9.55074C15.9317 9.12044 17.6975 9.27873 19.2681 10.1224C19.3603 10.0594 19.4848 10.0517 19.5877 10.1117C19.7306 10.1947 19.7783 10.3791 19.6938 10.5204C19.6108 10.6634 19.4264 10.711 19.285 10.6265C19.1851 10.5681 19.1328 10.4621 19.1374 10.3545C17.6283 9.54766 15.9348 9.39552 14.3918 9.80892C12.8643 10.2177 11.4858 11.1813 10.5837 12.6105C10.6405 12.7012 10.6482 12.821 10.5898 12.9209C10.5068 13.0638 10.324 13.113 10.181 13.03C10.0381 12.947 9.98894 12.7642 10.0719 12.6212C10.1319 12.5183 10.244 12.463 10.3562 12.4722V12.4706ZM8.30616 15.7655C8.38607 13.7262 9.24513 11.8882 10.5944 10.5389C11.9576 9.17576 13.8202 8.31362 15.8841 8.24908C15.9409 8.13228 16.0608 8.05237 16.1991 8.05237C16.3897 8.0539 16.5433 8.21066 16.5418 8.40122C16.5418 8.59178 16.3835 8.74546 16.193 8.74392C16.0593 8.74392 15.944 8.66708 15.8871 8.5549C13.9062 8.61791 12.1189 9.44777 10.8111 10.7556C9.51715 12.0496 8.69189 13.8138 8.61351 15.7701C8.72416 15.8285 8.79947 15.9438 8.79947 16.0775C8.79947 16.268 8.64425 16.4233 8.45369 16.4233C8.26313 16.4233 8.10791 16.268 8.10791 16.0775C8.10791 15.9392 8.18936 15.8193 8.30616 15.764V15.7655Z" fill="black"/>
<path fill-rule="evenodd" clip-rule="evenodd" d="M16.0364 13.6681C17.3145 13.6681 18.3492 14.7046 18.3492 15.9808C18.3492 17.2571 17.3127 18.2936 16.0364 18.2936C14.7601 18.2936 13.7236 17.2571 13.7236 15.9808C13.7236 14.7046 14.7601 13.6681 16.0364 13.6681ZM16.0364 11.5674C18.4746 11.5674 20.4517 13.5445 20.4517 15.9827C20.4517 18.4209 18.4746 20.398 16.0364 20.398C13.5982 20.398 11.6211 18.4209 11.6211 15.9827C11.6211 13.5445 13.5982 11.5674 16.0364 11.5674Z" fill="black"/>
<path d="M44.0659 0.166724C44.3187 0.166724 44.5237 0.371659 44.5237 0.624459V19.7159C44.5237 19.9687 44.7286 20.1737 44.9814 20.1737H53.5359C53.7887 20.1737 53.9936 20.3786 53.9936 20.6314V23.5506C53.9936 23.8034 53.7887 24.0083 53.5359 24.0083H40.5632C40.3104 24.0083 40.1055 23.8034 40.1055 23.5506V0.624459C40.1055 0.37166 40.3104 0.166724 40.5632 0.166724H44.0659Z" fill="black"/>
<path d="M59.5152 15.1886C59.5152 18.8454 60.9324 20.6738 63.7667 20.6738C66.601 20.6738 68.0182 18.8454 68.0182 15.1886C68.0182 11.6207 66.601 9.83674 63.7667 9.83674C60.9324 9.83674 59.5152 11.6207 59.5152 15.1886ZM55.097 15.2553C55.097 9.38659 57.9869 6.45223 63.7667 6.45223C69.5465 6.45223 72.4364 9.38659 72.4364 15.2553C72.4364 21.1129 69.5465 24.0417 63.7667 24.0417C58.0091 24.0417 55.1193 21.1129 55.097 15.2553Z" fill="black"/>
<path d="M73.9187 4.12567C73.9187 3.87287 74.1236 3.66794 74.3764 3.66794H76.824C77.0364 3.66794 77.2209 3.81407 77.2695 4.02083L77.7704 6.14936C77.819 6.35612 78.0035 6.50225 78.2159 6.50225H81.7972C82.05 6.50225 82.2549 6.70719 82.2549 6.95999V9.54573C82.2549 9.79853 82.05 10.0035 81.7972 10.0035H78.7946C78.5418 10.0035 78.3369 10.2084 78.3369 10.4612V18.0563C78.3369 19.6902 79.0427 20.5071 80.4543 20.5071H81.7972C82.05 20.5071 82.2549 20.712 82.2549 20.9648V23.5506C82.2549 23.8034 82.05 24.0083 81.7972 24.0083H78.3202C75.3859 24.0083 73.9187 22.4355 73.9187 19.29V4.12567Z" fill="black"/>
<path d="M91.8885 0.166724C92.1413 0.166724 92.3463 0.371659 92.3463 0.624459V23.5506C92.3463 23.8034 92.1413 24.0083 91.8885 24.0083H88.3858C88.133 24.0083 87.9281 23.8034 87.9281 23.5506V0.624459C87.9281 0.37166 88.133 0.166724 88.3858 0.166724H91.8885Z" fill="#0088FF"/>
<path d="M99.285 12.0208C99.285 17.5672 101.747 20.3404 106.671 20.3404C111.473 20.3404 113.873 17.5672 113.873 12.0208C113.873 6.56338 111.473 3.83466 106.671 3.83466C101.747 3.83466 99.285 6.56338 99.285 12.0208ZM94.7001 12.1209C94.7001 4.04029 98.6904 0 106.671 0C114.529 0 118.458 4.04029 118.458 12.1209C118.458 18.4363 116.226 22.2933 111.76 23.6918C111.434 23.794 111.303 24.1992 111.526 24.4585L114.591 28.0247C114.762 28.2246 114.73 28.5278 114.52 28.6873L111.781 30.7718C111.582 30.9229 111.299 30.887 111.144 30.691L106.141 24.3493C106.055 24.2392 105.92 24.1754 105.78 24.1737C98.7453 24.0906 95.0521 20.073 94.7001 12.1209Z" fill="#0088FF"/>
<path d="M42.0981 30.7984C41.8925 30.8458 41.6711 30.8696 41.4339 30.8696C40.5483 30.8696 40.1055 30.4386 40.1055 29.5767C40.1055 28.7781 40.5483 28.3787 41.4339 28.3787C41.6711 28.3787 41.8925 28.4025 42.0981 28.4499V28.8057C41.8925 28.7583 41.6632 28.7346 41.4102 28.7346C40.8329 28.7346 40.5443 29.0153 40.5443 29.5767C40.5443 30.2014 40.8329 30.5137 41.4102 30.5137C41.6632 30.5137 41.8925 30.49 42.0981 30.4426V30.7984Z" fill="black"/>
<path d="M42.9782 29.6147C42.9782 30.214 43.2273 30.5137 43.7255 30.5137C44.2236 30.5137 44.4727 30.214 44.4727 29.6147C44.4727 29.0279 44.2236 28.7346 43.7255 28.7346C43.2273 28.7346 42.9782 29.0279 42.9782 29.6147ZM42.5394 29.6241C42.5394 28.7939 42.9347 28.3787 43.7255 28.3787C44.5162 28.3787 44.9116 28.7939 44.9116 29.6241C44.9116 30.4528 44.5162 30.8672 43.7255 30.8672C42.9379 30.8672 42.5425 30.4528 42.5394 29.6241Z" fill="black"/>
<path d="M45.5046 30.8696V28.3787H45.8012L45.8747 28.6919C46.1135 28.4831 46.3736 28.3787 46.6551 28.3787C47.0157 28.3787 47.2616 28.4926 47.3929 28.7203C47.6633 28.4926 47.9377 28.3787 48.2161 28.3787C48.7886 28.3787 49.0748 28.6942 49.0748 29.3252V30.8696H48.6359V29.3015C48.6359 28.9299 48.4794 28.7441 48.1662 28.7441C47.9322 28.7441 47.7132 28.8516 47.5091 29.0667V30.8696H47.0703V29.3086C47.0703 28.9323 46.9153 28.7441 46.6053 28.7441C46.3586 28.7441 46.138 28.8516 45.9435 29.0667V30.8696H45.5046Z" fill="black"/>
<path d="M50.2277 30.3619C50.4001 30.4473 50.5922 30.49 50.8041 30.49C51.3213 30.49 51.5799 30.1792 51.5799 29.5577C51.5799 29.0153 51.3229 28.7441 50.8089 28.7441C50.5875 28.7441 50.3938 28.763 50.2277 28.801V30.3619ZM49.7888 28.4807C50.1194 28.4127 50.461 28.3787 50.8136 28.3787C51.6123 28.3787 52.0116 28.7733 52.0116 29.5625C52.0116 30.4339 51.6099 30.8696 50.8065 30.8696C50.6073 30.8696 50.4143 30.83 50.2277 30.7509V31.771H49.7888V28.4807Z" fill="black"/>
<path d="M53.0696 27.4773V30.8696H52.6308V27.4773H53.0696Z" fill="black"/>
<path d="M54.8345 28.3787C55.543 28.3787 55.8973 28.729 55.8973 29.4296C55.8973 29.5293 55.8902 29.636 55.8759 29.7499H54.1276C54.1276 30.2591 54.4249 30.5137 55.0196 30.5137C55.3027 30.5137 55.5541 30.4821 55.7739 30.4188V30.7747C55.5541 30.8379 55.2868 30.8696 54.9721 30.8696C54.1165 30.8696 53.6888 30.4449 53.6888 29.5957C53.6888 28.7844 54.0707 28.3787 54.8345 28.3787ZM54.1276 29.3846H55.475C55.4655 28.9481 55.252 28.7298 54.8345 28.7298C54.3917 28.7298 54.1561 28.9481 54.1276 29.3846Z" fill="black"/>
<path d="M56.488 27.9755H56.7631L56.858 28.3787H57.5317V28.7346H56.9268V30.165C56.9268 30.3975 57.0273 30.5137 57.2281 30.5137H57.5317V30.8696H57.1142C56.6967 30.8696 56.488 30.6458 56.488 30.1982V27.9755Z" fill="black"/>
<path d="M59.1188 28.3787C59.8273 28.3787 60.1815 28.729 60.1815 29.4296C60.1815 29.5293 60.1744 29.636 60.1602 29.7499H58.4118C58.4118 30.2591 58.7092 30.5137 59.3038 30.5137C59.5869 30.5137 59.8383 30.4821 60.0582 30.4188V30.7747C59.8383 30.8379 59.5711 30.8696 59.2563 30.8696C58.4008 30.8696 57.973 30.4449 57.973 29.5957C57.973 28.7844 58.3549 28.3787 59.1188 28.3787ZM58.4118 29.3846H59.7593C59.7498 28.9481 59.5363 28.7298 59.1188 28.7298C58.6759 28.7298 58.4403 28.9481 58.4118 29.3846Z" fill="black"/>
<path d="M62.3972 30.3619C62.5695 30.4473 62.7617 30.49 62.9736 30.49C63.4907 30.49 63.7493 30.1792 63.7493 29.5577C63.7493 29.0153 63.4923 28.7441 62.9783 28.7441C62.7569 28.7441 62.5632 28.763 62.3972 28.801V30.3619ZM61.9583 28.4807C62.2888 28.4127 62.6304 28.3787 62.9831 28.3787C63.7817 28.3787 64.1811 28.7733 64.1811 29.5625C64.1811 30.4339 63.7794 30.8696 62.976 30.8696C62.7767 30.8696 62.5838 30.83 62.3972 30.7509V31.771H61.9583V28.4807Z" fill="black"/>
<path d="M64.7765 30.8696V28.3787H65.073L65.1513 28.6966C65.3695 28.4847 65.6321 28.3787 65.9389 28.3787V28.7441C65.6415 28.7441 65.4004 28.8492 65.2153 29.0596V30.8696H64.7765Z" fill="black"/>
<path d="M66.7003 29.6147C66.7003 30.214 66.9494 30.5137 67.4476 30.5137C67.9458 30.5137 68.1948 30.214 68.1948 29.6147C68.1948 29.0279 67.9458 28.7346 67.4476 28.7346C66.9494 28.7346 66.7003 29.0279 66.7003 29.6147ZM66.2615 29.6241C66.2615 28.7939 66.6569 28.3787 67.4476 28.3787C68.2383 28.3787 68.6337 28.7939 68.6337 29.6241C68.6337 30.4528 68.2383 30.8672 67.4476 30.8672C66.66 30.8672 66.2647 30.4528 66.2615 29.6241Z" fill="black"/>
<path d="M69.6656 30.3619C69.838 30.4473 70.0301 30.49 70.2421 30.49C70.7592 30.49 71.0178 30.1792 71.0178 29.5577C71.0178 29.0153 70.7608 28.7441 70.2468 28.7441C70.0254 28.7441 69.8317 28.763 69.6656 28.801V30.3619ZM69.2268 28.4807C69.5573 28.4127 69.8989 28.3787 70.2516 28.3787C71.0502 28.3787 71.4495 28.7733 71.4495 29.5625C71.4495 30.4339 71.0478 30.8696 70.2444 30.8696C70.0452 30.8696 69.8522 30.83 69.6656 30.7509V31.771H69.2268V28.4807Z" fill="black"/>
<path d="M73.0721 28.3787C73.7806 28.3787 74.1349 28.729 74.1349 29.4296C74.1349 29.5293 74.1277 29.636 74.1135 29.7499H72.3652C72.3652 30.2591 72.6625 30.5137 73.2571 30.5137C73.5402 30.5137 73.7917 30.4821 74.0115 30.4188V30.7747C73.7917 30.8379 73.5244 30.8696 73.2097 30.8696C72.3541 30.8696 71.9263 30.4449 71.9263 29.5957C71.9263 28.7844 72.3083 28.3787 73.0721 28.3787ZM72.3652 29.3846H73.7126C73.7031 28.9481 73.4896 28.7298 73.0721 28.7298C72.6293 28.7298 72.3937 28.9481 72.3652 29.3846Z" fill="black"/>
<path d="M74.7255 30.8696V28.3787H75.0221L75.1004 28.6966C75.3186 28.4847 75.5811 28.3787 75.8879 28.3787V28.7441C75.5906 28.7441 75.3494 28.8492 75.1644 29.0596V30.8696H74.7255Z" fill="black"/>
<path d="M76.3292 27.9755H76.6043L76.6992 28.3787H77.3729V28.7346H76.768V30.165C76.768 30.3975 76.8684 30.5137 77.0693 30.5137H77.3729V30.8696H76.9554C76.5379 30.8696 76.3292 30.6458 76.3292 30.1982V27.9755Z" fill="black"/>
<path d="M77.6362 28.3787H78.1131L78.8176 30.324L79.5459 28.3787H80.0108L78.9765 30.9431C78.7931 31.3954 78.5179 31.6777 78.151 31.79L77.9826 31.4792C78.2609 31.3574 78.4634 31.159 78.5899 30.8838L77.6362 28.3787Z" fill="black"/>
<path d="M82.096 28.3787V30.8696H81.6571V28.3787H82.096ZM82.096 27.4773V27.8924H81.6571V27.4773H82.096Z" fill="black"/>
<path d="M82.8575 30.8696V28.3787H83.154L83.2323 28.6966C83.4869 28.4847 83.7668 28.3787 84.0721 28.3787C84.6936 28.3787 85.0043 28.6879 85.0043 29.3063V30.8696H84.5655V29.2992C84.5655 28.9291 84.3812 28.7441 84.0128 28.7441C83.7613 28.7441 83.5225 28.8492 83.2963 29.0596V30.8696H82.8575Z" fill="black"/>
<path d="M85.7184 27.9755H85.9936L86.0884 28.3787H86.7621V28.7346H86.1572V30.165C86.1572 30.3975 86.2577 30.5137 86.4585 30.5137H86.7621V30.8696H86.3446C85.9271 30.8696 85.7184 30.6458 85.7184 30.1982V27.9755Z" fill="black"/>
<path d="M88.3492 28.3787C89.0577 28.3787 89.4119 28.729 89.4119 29.4296C89.4119 29.5293 89.4048 29.636 89.3906 29.7499H87.6422C87.6422 30.2591 87.9396 30.5137 88.5342 30.5137C88.8173 30.5137 89.0687 30.4821 89.2886 30.4188V30.7747C89.0687 30.8379 88.8015 30.8696 88.4867 30.8696C87.6312 30.8696 87.2034 30.4449 87.2034 29.5957C87.2034 28.7844 87.5853 28.3787 88.3492 28.3787ZM87.6422 29.3846H88.9897C88.9802 28.9481 88.7667 28.7298 88.3492 28.7298C87.9063 28.7298 87.6707 28.9481 87.6422 29.3846Z" fill="black"/>
<path d="M90.4652 27.4773V30.8696H90.0263V27.4773H90.4652Z" fill="black"/>
<path d="M91.6655 27.4773V30.8696H91.2267V27.4773H91.6655Z" fill="black"/>
<path d="M92.8896 28.3787V30.8696H92.4507V28.3787H92.8896ZM92.8896 27.4773V27.8924H92.4507V27.4773H92.8896Z" fill="black"/>
<path d="M95.3163 28.801C95.1661 28.763 94.9803 28.7441 94.7589 28.7441C94.2291 28.7441 93.9642 29.0311 93.9642 29.6052C93.9642 30.1951 94.2149 30.49 94.7162 30.49C94.9439 30.49 95.144 30.4473 95.3163 30.3619V28.801ZM95.7552 30.8696C95.7552 31.4705 95.3733 31.771 94.6094 31.771C94.3026 31.771 94.0306 31.7315 93.7934 31.6524V31.2966C94.0354 31.3756 94.309 31.4152 94.6142 31.4152C95.0823 31.4152 95.3163 31.2333 95.3163 30.8696V30.7509C95.1297 30.83 94.9289 30.8696 94.7138 30.8696C93.9262 30.8696 93.5324 30.4497 93.5324 29.6099C93.5324 28.7891 93.9476 28.3787 94.7779 28.3787C95.1147 28.3787 95.4405 28.4127 95.7552 28.4807V30.8696Z" fill="black"/>
<path d="M97.4964 28.3787C98.2049 28.3787 98.5592 28.729 98.5592 29.4296C98.5592 29.5293 98.552 29.636 98.5378 29.7499H96.7895C96.7895 30.2591 97.0868 30.5137 97.6814 30.5137C97.9645 30.5137 98.216 30.4821 98.4358 30.4188V30.7747C98.216 30.8379 97.9487 30.8696 97.634 30.8696C96.7784 30.8696 96.3506 30.4449 96.3506 29.5957C96.3506 28.7844 96.7326 28.3787 97.4964 28.3787ZM96.7895 29.3846H98.1369C98.1274 28.9481 97.9139 28.7298 97.4964 28.7298C97.0536 28.7298 96.818 28.9481 96.7895 29.3846Z" fill="black"/>
<path d="M99.1498 30.8696V28.3787H99.4464L99.5247 28.6966C99.7793 28.4847 100.059 28.3787 100.364 28.3787C100.986 28.3787 101.297 28.6879 101.297 29.3063V30.8696H100.858V29.2992C100.858 28.9291 100.674 28.7441 100.305 28.7441C100.054 28.7441 99.8149 28.8492 99.5887 29.0596V30.8696H99.1498Z" fill="black"/>
<path d="M103.885 30.7984C103.679 30.8458 103.458 30.8696 103.221 30.8696C102.335 30.8696 101.892 30.4386 101.892 29.5767C101.892 28.7781 102.335 28.3787 103.221 28.3787C103.458 28.3787 103.679 28.4025 103.885 28.4499V28.8057C103.679 28.7583 103.45 28.7346 103.197 28.7346C102.62 28.7346 102.331 29.0153 102.331 29.5767C102.331 30.2014 102.62 30.5137 103.197 30.5137C103.45 30.5137 103.679 30.49 103.885 30.4426V30.7984Z" fill="black"/>
<path d="M105.472 28.3787C106.18 28.3787 106.535 28.729 106.535 29.4296C106.535 29.5293 106.527 29.636 106.513 29.7499H104.765C104.765 30.2591 105.062 30.5137 105.657 30.5137C105.94 30.5137 106.191 30.4821 106.411 30.4188V30.7747C106.191 30.8379 105.924 30.8696 105.609 30.8696C104.754 30.8696 104.326 30.4449 104.326 29.5957C104.326 28.7844 104.708 28.3787 105.472 28.3787ZM104.765 29.3846H106.112C106.103 28.9481 105.889 28.7298 105.472 28.7298C105.029 28.7298 104.793 28.9481 104.765 29.3846Z" fill="black"/>
</svg>
